<svg width="182" height="79" viewBox="0 0 182 79" fill="none" xmlns="http://www.w3.org/2000/svg">
<path d="M11.85 40.95C10.3833 40.45 9.05 39.95 7.85 39.45C6.65 38.9167 5.61667 38.2833 4.75 37.55C3.88333 36.8167 3.2 35.95 2.7 34.95C2.23333 33.9167 2 32.6667 2 31.2C2 28.3667 3.08333 26.1 5.25 24.4C7.45 22.7 10.5167 21.85 14.45 21.85C15.8833 21.85 17.2167 21.95 18.45 22.15C19.6833 22.35 20.7333 22.6667 21.6 23.1C22.5 23.5 23.2 24.0333 23.7 24.7C24.2 25.3333 24.45 26.0833 24.45 26.95C24.45 27.8167 24.25 28.5667 23.85 29.2C23.45 29.8 22.9667 30.3167 22.4 30.75C21.6667 30.2833 20.6833 29.8833 19.45 29.55C18.2167 29.1833 16.8667 29 15.4 29C13.9 29 12.8 29.2167 12.1 29.65C11.4 30.05 11.05 30.5667 11.05 31.2C11.05 31.7 11.2667 32.1167 11.7 32.45C12.1333 32.75 12.7833 33.0333 13.65 33.3L16.3 34.15C19.4333 35.15 21.8333 36.4333 23.5 38C25.2 39.5333 26.05 41.6333 26.05 44.3C26.05 47.1333 24.9333 49.4333 22.7 51.2C20.4667 52.9333 17.1833 53.8 12.85 53.8C11.3167 53.8 9.88333 53.6667 8.55 53.4C7.25 53.1667 6.1 52.8167 5.1 52.35C4.13333 51.85 3.36667 51.25 2.8 50.55C2.26667 49.8167 2 48.9833 2 48.05C2 47.0833 2.28333 46.2667 2.85 45.6C3.41667 44.9 4.03333 44.3667 4.7 44C5.63333 44.7333 6.76667 45.3667 8.1 45.9C9.46667 46.4333 10.95 46.7 12.55 46.7C14.1833 46.7 15.3333 46.45 16 45.95C16.6667 45.45 17 44.8667 17 44.2C17 43.5333 16.7333 43.0333 16.2 42.7C15.6667 42.3333 14.9167 41.9833 13.95 41.65L11.85 40.95ZM29.9391 21.95C29.9391 20.6833 30.3557 19.6167 31.1891 18.75C32.0557 17.8833 33.1891 17.45 34.5891 17.45C35.9891 17.45 37.1057 17.8833 37.9391 18.75C38.8057 19.6167 39.2391 20.6833 39.2391 21.95C39.2391 23.2167 38.8057 24.2833 37.9391 25.15C37.1057 26.0167 35.9891 26.45 34.5891 26.45C33.1891 26.45 32.0557 26.0167 31.1891 25.15C30.3557 24.2833 29.9391 23.2167 29.9391 21.95ZM38.8391 52.95C38.4724 53.0167 37.9224 53.1 37.1891 53.2C36.4891 53.3333 35.7724 53.4 35.0391 53.4C34.3057 53.4 33.6391 53.35 33.0391 53.25C32.4724 53.15 31.9891 52.95 31.5891 52.65C31.1891 52.35 30.8724 51.95 30.6391 51.45C30.4391 50.9167 30.3391 50.2333 30.3391 49.4V29.05C30.7057 28.9833 31.2391 28.9 31.9391 28.8C32.6724 28.6667 33.4057 28.6 34.1391 28.6C34.8724 28.6 35.5224 28.65 36.0891 28.75C36.6891 28.85 37.1891 29.05 37.5891 29.35C37.9891 29.65 38.2891 30.0667 38.4891 30.6C38.7224 31.1 38.8391 31.7667 38.8391 32.6V52.95ZM55.9004 27.95C57.2671 27.95 58.6004 28.15 59.9004 28.55C61.2337 28.9167 62.3837 29.4833 63.3504 30.25C64.3504 29.5833 65.4671 29.0333 66.7004 28.6C67.9671 28.1667 69.4837 27.95 71.2504 27.95C72.5171 27.95 73.7504 28.1167 74.9504 28.45C76.1837 28.7833 77.2671 29.3167 78.2004 30.05C79.1671 30.75 79.9337 31.7 80.5004 32.9C81.0671 34.0667 81.3504 35.5 81.3504 37.2V52.95C81.0171 53.05 80.4837 53.15 79.7504 53.25C79.0504 53.35 78.3171 53.4 77.5504 53.4C76.8171 53.4 76.1504 53.35 75.5504 53.25C74.9837 53.15 74.5004 52.95 74.1004 52.65C73.7004 52.35 73.3837 51.95 73.1504 51.45C72.9504 50.9167 72.8504 50.2333 72.8504 49.4V37.45C72.8504 36.45 72.5671 35.7333 72.0004 35.3C71.4337 34.8333 70.6671 34.6 69.7004 34.6C69.2337 34.6 68.7337 34.7167 68.2004 34.95C67.6671 35.15 67.2671 35.3667 67.0004 35.6C67.0337 35.7333 67.0504 35.8667 67.0504 36C67.0504 36.1 67.0504 36.2 67.0504 36.3V52.95C66.6837 53.05 66.1337 53.15 65.4004 53.25C64.7004 53.35 63.9837 53.4 63.2504 53.4C62.5171 53.4 61.8504 53.35 61.2504 53.25C60.6837 53.15 60.2004 52.95 59.8004 52.65C59.4004 52.35 59.0837 51.95 58.8504 51.45C58.6504 50.9167 58.5504 50.2333 58.5504 49.4V37.45C58.5504 36.45 58.2337 35.7333 57.6004 35.3C57.0004 34.8333 56.2671 34.6 55.4004 34.6C54.8004 34.6 54.2837 34.7 53.8504 34.9C53.4171 35.0667 53.0504 35.2333 52.7504 35.4V52.95C52.4171 53.05 51.8837 53.15 51.1504 53.25C50.4504 53.35 49.7171 53.4 48.9504 53.4C48.2171 53.4 47.5504 53.35 46.9504 53.25C46.3837 53.15 45.9004 52.95 45.5004 52.65C45.1004 52.35 44.7837 51.95 44.5504 51.45C44.3504 50.9167 44.2504 50.2333 44.2504 49.4V34.3C44.2504 33.4 44.4337 32.6833 44.8004 32.15C45.2004 31.6167 45.7337 31.1167 46.4004 30.65C47.5337 29.85 48.9337 29.2 50.6004 28.7C52.3004 28.2 54.0671 27.95 55.9004 27.95ZM86.5355 29.05C86.8689 28.95 87.3855 28.85 88.0855 28.75C88.8189 28.65 89.5689 28.6 90.3355 28.6C91.0689 28.6 91.7189 28.65 92.2855 28.75C92.8855 28.85 93.3855 29.05 93.7855 29.35C94.1855 29.65 94.4855 30.0667 94.6855 30.6C94.9189 31.1 95.0355 31.7667 95.0355 32.6V43.35C95.0355 44.7167 95.3689 45.7 96.0355 46.3C96.7022 46.8667 97.6689 47.15 98.9355 47.15C99.7022 47.15 100.319 47.0833 100.786 46.95C101.286 46.8167 101.669 46.6833 101.936 46.55V29.05C102.269 28.95 102.786 28.85 103.486 28.75C104.219 28.65 104.969 28.6 105.736 28.6C106.469 28.6 107.119 28.65 107.686 28.75C108.286 28.85 108.786 29.05 109.186 29.35C109.586 29.65 109.886 30.0667 110.086 30.6C110.319 31.1 110.436 31.7667 110.436 32.6V47.8C110.436 49.4667 109.736 50.7167 108.336 51.55C107.169 52.2833 105.769 52.8333 104.136 53.2C102.536 53.6 100.786 53.8 98.8855 53.8C97.0855 53.8 95.4189 53.6 93.8855 53.2C92.3855 52.8 91.0855 52.1833 89.9855 51.35C88.8855 50.5167 88.0355 49.45 87.4355 48.15C86.8355 46.8167 86.5355 45.2167 86.5355 43.35V29.05ZM124.287 52.95C123.92 53.0167 123.37 53.1 122.637 53.2C121.937 53.3333 121.22 53.4 120.487 53.4C119.754 53.4 119.087 53.35 118.487 53.25C117.92 53.15 117.437 52.95 117.037 52.65C116.637 52.35 116.32 51.95 116.087 51.45C115.887 50.9167 115.787 50.2333 115.787 49.4V20.4C116.154 20.3333 116.687 20.25 117.387 20.15C118.12 20.0167 118.854 19.95 119.587 19.95C120.32 19.95 120.97 20 121.537 20.1C122.137 20.2 122.637 20.4 123.037 20.7C123.437 21 123.737 21.4167 123.937 21.95C124.17 22.45 124.287 23.1167 124.287 23.95V52.95ZM140.051 47.6C140.617 47.6 141.234 47.55 141.901 47.45C142.601 47.3167 143.117 47.15 143.451 46.95V42.95L139.851 43.25C138.917 43.3167 138.151 43.5167 137.551 43.85C136.951 44.1833 136.651 44.6833 136.651 45.35C136.651 46.0167 136.901 46.5667 137.401 47C137.934 47.4 138.817 47.6 140.051 47.6ZM139.651 27.95C141.451 27.95 143.084 28.1333 144.551 28.5C146.051 28.8667 147.317 29.4333 148.351 30.2C149.417 30.9333 150.234 31.8833 150.801 33.05C151.367 34.1833 151.651 35.5333 151.651 37.1V48.3C151.651 49.1667 151.401 49.8833 150.901 50.45C150.434 50.9833 149.867 51.45 149.201 51.85C147.034 53.15 143.984 53.8 140.051 53.8C138.284 53.8 136.684 53.6333 135.251 53.3C133.851 52.9667 132.634 52.4667 131.601 51.8C130.601 51.1333 129.817 50.2833 129.251 49.25C128.717 48.2167 128.451 47.0167 128.451 45.65C128.451 43.35 129.134 41.5833 130.501 40.35C131.867 39.1167 133.984 38.35 136.851 38.05L143.401 37.35V37C143.401 36.0333 142.967 35.35 142.101 34.95C141.267 34.5167 140.051 34.3 138.451 34.3C137.184 34.3 135.951 34.4333 134.751 34.7C133.551 34.9667 132.467 35.3 131.501 35.7C131.067 35.4 130.701 34.95 130.401 34.35C130.101 33.7167 129.951 33.0667 129.951 32.4C129.951 31.5333 130.151 30.85 130.551 30.35C130.984 29.8167 131.634 29.3667 132.501 29C133.467 28.6333 134.601 28.3667 135.901 28.2C137.234 28.0333 138.484 27.95 139.651 27.95Z" fill="white"/>
<path d="M169.698 53.8C167.731 53.8 165.898 53.5333 164.198 53C162.531 52.4333 161.065 51.6 159.798 50.5C158.565 49.4 157.581 48.0167 156.848 46.35C156.148 44.6833 155.798 42.7333 155.798 40.5C155.798 38.3 156.148 36.4167 156.848 34.85C157.581 33.25 158.531 31.95 159.698 30.95C160.865 29.9167 162.198 29.1667 163.698 28.7C165.198 28.2 166.731 27.95 168.298 27.95C170.065 27.95 171.665 28.2167 173.098 28.75C174.565 29.2833 175.815 30.0167 176.848 30.95C177.915 31.8833 178.731 33 179.298 34.3C179.898 35.6 180.198 37.0167 180.198 38.55C180.198 39.6833 179.881 40.55 179.248 41.15C178.615 41.75 177.731 42.1333 176.598 42.3L164.248 44.15C164.615 45.25 165.365 46.0833 166.498 46.65C167.631 47.1833 168.931 47.45 170.398 47.45C171.765 47.45 173.048 47.2833 174.248 46.95C175.481 46.5833 176.481 46.1667 177.248 45.7C177.781 46.0333 178.231 46.5 178.598 47.1C178.965 47.7 179.148 48.3333 179.148 49C179.148 50.5 178.448 51.6167 177.048 52.35C175.981 52.9167 174.781 53.3 173.448 53.5C172.115 53.7 170.865 53.8 169.698 53.8ZM168.298 34.15C167.498 34.15 166.798 34.2833 166.198 34.55C165.631 34.8167 165.165 35.1667 164.798 35.6C164.431 36 164.148 36.4667 163.948 37C163.781 37.5 163.681 38.0167 163.648 38.55L172.198 37.15C172.098 36.4833 171.731 35.8167 171.098 35.15C170.465 34.4833 169.531 34.15 168.298 34.15Z" fill="url(#paint0_linear_85_73)"/>
<defs>
<linearGradient id="paint0_linear_85_73" x1="168" y1="28" x2="168" y2="53.5" gradientUnits="userSpaceOnUse">
<stop stop-color="#AA44FF"/>
<stop offset="1" stop-color="#504AFF"/>
</linearGradient>
</defs>
</svg>
